{"title":"Blade Trinity (2004) 720p BDRip x264 AC3-FWOLF","uid":9777636,"size":2595529021,"categoryP":"video","categoryS":"hd___movies","magnet":"?xt=urn:btih:075d4eed49f39f5f005868370adc49a76dc02b4a&amp;dn=Blade+Trinity+%282004%29+720p+BDRip+x264+AC3-FWOLF&amp;tr=udp%3A%2F%2Ftracker.openbittorrent.com%3A80&amp;tr=udp%3A%2F%2Fopen.demonii.com%3A1337&amp;tr=udp%3A%2F%2Ftracker.coppersurfer.tk%3A6969&amp;tr=udp%3A%2F%2Fexodus.desync.com%3A6969","seeders":0,"leechers":1,"uploader":"sakhslitsa","files":12,"time":1395017375,"description":"Format : Matroska\nFormat version : Version 2\nFile size : 2.38 GiB\nDuration : 2h 2mn\nOverall bit rate : 2 782 Kbps\nEncoded date : UTC 2014-03-16 23:25:03\nWriting application : mkvmerge v6.5.0 ('Isn't she lovely') built on Oct 20 2013 12:50:05\nWriting library : libebml v1.3.0 + libmatroska v1.4.1\n\nVideo\nID : 1\nFormat : AVC\nFormat/Info : Advanced Video Codec\nFormat profile : &lt;a class=&quot;__cf_email__&quot; href=&quot;/cdn-cgi/l/email-protection&quot; data-cfemail=&quot;6f270608072f235b415e&quot;&gt;[email&amp;#160;protected]&lt;/a&gt;&lt;script cf-hash='f9e31' type=&quot;text/javascript&quot;&gt;\n/* &lt;![CDATA[ */!function(){try{var t=&quot;currentScript&quot;in document?document.currentScript:function(){for(var t=document.getElementsByTagName(&quot;script&quot;),e=t.length;e--;)if(t[e].getAttribute(&quot;cf-hash&quot;))return t[e]}();if(t&amp;&amp;t.previousSibling){var e,r,n,i,c=t.previousSibling,a=c.getAttribute(&quot;data-cfemail&quot;);if(a){for(e=&quot;&quot;,r=parseInt(a.substr(0,2),16),n=2;a.length-n;n+=2)i=parseInt(a.substr(n,2),16)^r,e+=String.fromCharCode(i);e=document.createTextNode(e),c.parentNode.replaceChild(e,c)}}}catch(u){}}();/* ]]&gt; */&lt;/script&gt;\nFormat settings, CABAC : Yes\nFormat settings, ReFrames : 8 frames\nCodec ID : V_MPEG4/ISO/AVC\nDuration : 2h 2mn\nBit rate : 2 334 Kbps\nWidth : 1 280 pixels\nHeight : 544 pixels\nDisplay aspect ratio : 2.35:1\nFrame rate mode : Constant\nFrame rate : 23.976 fps\nColor space : YUV\nChroma subsampling : 4:2:0\nBit depth : 8 bits\nScan type : Progressive\nBits/(Pixel*Frame) : 0.140\nStream size : 1.95 GiB (82%)\nWriting library : x264 core 138 r2358 9e941d1\n\nLanguage : English\nDefault : Yes\nForced : No\n\nAudio\nID : 2\nFormat : AC-3\nFormat/Info : Audio Coding 3\nMode extension : CM (complete main)\nFormat settings, Endianness : Big\nCodec ID : A_AC3\nDuration : 2h 2mn\nBit rate mode : Constant\nBit rate : 448 Kbps\nChannel(s) : 6 channels\nChannel positions : Front: L C R, Side: L R, LFE\nSampling rate : 48.0 KHz\nBit depth : 16 bits\nCompression mode : Lossy\nStream size : 392 MiB (16%)\nLanguage : English\nDefault : Yes\nForced : No\n\nMenu\n00:00:00.000 : en:00:00:00.000\n00:06:47.032 : en:00:06:47.032\n00:12:58.152 : en:00:12:58.152\n00:17:14.825 : en:00:17:14.825\n00:18:47.293 : en:00:18:47.293\n00:22:46.824 : en:00:22:46.824\n00:27:03.789 : en:00:27:03.789\n00:34:20.517 : en:00:34:20.517\n00:41:05.171 : en:00:41:05.171\n00:45:37.985 : en:00:45:37.985\n00:50:52.299 : en:00:50:52.299\n00:54:07.202 : en:00:54:07.202\n00:58:04.106 : en:00:58:04.106\n01:08:00.576 : en:01:08:00.576\n01:17:49.623 : en:01:17:49.623\n01:21:54.618 : en:01:21:54.618\n01:28:26.510 : en:01:28:26.510\n01:33:24.474 : en:01:33:24.474\n01:41:25.246 : en:01:41:25.246\n01:46:06.235 : en:01:46:06.235\n01:50:38.173 : en:01:50:38.173\n01:53:45.193 : en:01:53:45.193\n\n\nEncoded....................FWOLF\n\nSource.....................Blade: Trinity (2004) [UNRATED] Blu-ray 1080p AVC DTS-HD 5.1 (Thanks!)\n\nSample.....................Yes\n\nSubs (VobSub)..............English,Russian\n\nSubs.......................(srt) ...English,Greek\n\n\nGreetz To: PsiX | Blacksheep | CFR | tomcat-12...\n.....and all P2P Encoders and Groups.....","torrent":{"xt":"urn:btih:075d4eed49f39f5f005868370adc49a76dc02b4a","amp;dn":"Blade+Trinity+%282004%29+720p+BDRip+x264+AC3-FWOLF","amp;tr":["udp%3A%2F%2Ftracker.openbittorrent.com%3A80","udp%3A%2F%2Fopen.demonii.com%3A1337","udp%3A%2F%2Ftracker.coppersurfer.tk%3A6969","udp%3A%2F%2Fexodus.desync.com%3A6969"],"infoHash":"075d4eed49f39f5f005868370adc49a76dc02b4a","infoHashBuffer":{"type":"Buffer","data":[7,93,78,237,73,243,159,95,0,88,104,55,10,220,73,167,109,192,43,74]},"announce":[],"urlList":[]}}